# xmcd
#
# Track frame offsets: 
#        150
#        15197
#        28277
#        43327
#        58687
#        74152
#        88530
#        104152
#        123957
#        142122
#        156840
#        174190
#        189017
#
# Disc length: 2771 seconds
#
# Revision: 0
# Processed by: cddbd v1.4PL0 Copyright (c) Steve Scherf et al.
# Submitted via: ExactAudioCopy v0.90a11
#
DISCID=b40ad10d
DTITLE=Billy White - Es ist wieder mal soweit
DYEAR=1900
DGENRE=
TTITLE0=Es ist wieder mal so weit
TTITLE1=Du hast gepokert mit dem Glück
TTITLE2=Immer unterwegs
TTITLE3=Kennst Dy mich noch mein Freund
TTITLE4=Anja
TTITLE5=Nordland
TTITLE6=Ein einfacher Mann
TTITLE7=Das was heute nicht mein Tag
TTITLE8=Der Strassenmusikant
TTITLE9=Die Zeit geht wie im Flug vorbei
TTITLE10=Tränen der Natur
TTITLE11=Lady Harmonie
TTITLE12=Bleib so wie Du bist
EXTD=
EXTT0=
EXTT1=
EXTT2=
EXTT3=
EXTT4=
EXTT5=
EXTT6=
EXTT7=
EXTT8=
EXTT9=
EXTT10=
EXTT11=
EXTT12=
PLAYORDER=
